<?xml version="1.0" encoding="UTF-8"?>
<svg xmlns="http://www.w3.org/2000/svg" viewBox="0 0 30.19 20.32">
  <defs>
    <style>
      .card-frame-outer{fill:#231f20;stroke:none;}.card-frame-inner{fill:#fff;stroke:none;}
      .cls-1 {
        stroke: gray;
      }

      .cls-1, .cls-2 {
        fill: #fff;
        stroke-miterlimit: 10;
        stroke-width: 0.28448px;
      }

      .cls-2 {
        stroke: #f4c430;
      }

      .cls-3 {
        fill: red;
      }

      .cls-4 {
        fill: #f4c430;
      }
    </style>
  </defs>
  <path class="card-frame-outer" d="M14.25,0H.53C.12,0-.1.24.05.54l9.42,18.8c.27.53.95.98,1.52.98h18.68c.57,0,.69-.44.28-.98L15.42.54C15.19.24,14.66,0,14.25,0ZM29.38,19.34c.18.24.12.43-.13.43H10.7c-.25,0-.55-.19-.67-.43L.47.54c-.07-.13.03-.24.21-.24h13.79c.19,0,.42.1.52.23l14.38,18.8Z"/>
  <path class="card-frame-inner" d="M14.47.3H.69c-.19,0-.28.11-.21.24l9.56,18.8c.12.24.42.43.67.43h18.55c.25,0,.31-.19.13-.43L14.99.54c-.1-.13-.33-.24-.52-.24Z"/>
  
  <g id="default">
    
    <g>
      <path class="cls-3" d="M7.8543,2.99901C7.53818,2.32928 8.76699,2.32637 9.21244,2.98866C8.83086,2.32653 10.07075,2.33534 10.59334,3.00772C11.09631,3.65473 10.00383,4.08082 10.25906,4.66475C9.78445,4.07985 8.15824,3.64316 7.8543,2.99901Z"/>
      <path class="cls-3" d="M15.02064,14.95996C15.74466,15.98977 17.31408,16.02766 16.71917,15.01076C17.39516,16.02914 18.95904,16.04863 18.39692,15.01778C17.8847,14.07821 15.87323,13.45106 15.25563,12.66699C15.61478,13.44709 14.36086,14.02168 15.02064,14.95996Z"/>
    </g>
    <g>
      <path class="cls-3" d="M3.38899,4.15729C3.17493,3.59647 4.17757,3.59546 4.49506,4.15005C4.22949,3.59566 5.23983,3.60453 5.61703,4.16747C5.97845,4.70671 5.06177,5.05946 5.22729,5.5427C4.88414,5.05846 3.59403,4.69431 3.38899,4.15729Z"/>
      <path class="cls-3" d="M20.79535,13.40151C21.43816,14.19456 22.68467,14.22169 22.14972,13.43894C22.74882,14.22272 23.98878,14.23565 23.48362,13.44238C23.02046,12.7149 21.37554,12.22821 20.82956,11.61533C21.16888,12.22535 20.20613,12.67446 20.79535,13.40151Z"/>
      <path class="cls-3" d="M25.88839,17.77424C25.88151,17.86693 25.85199,17.93688 25.80017,17.98418C25.74851,18.03153 25.67296,18.05421 25.57382,18.05218C25.46722,18.05 25.36459,18.02989 25.26591,17.99208C25.16758,17.95433 25.0763,17.90316 24.99285,17.83904C24.90956,17.77505 24.83804,17.70157 24.77851,17.61867C24.72685,17.54674 24.69055,17.46752 24.66884,17.38064C24.64741,17.29397 24.63872,17.20615 24.64301,17.11699C24.6473,17.02804 24.65522,16.942 24.66697,16.85884C24.67869,16.77587 24.69329,16.70351 24.71097,16.64171L24.99027,15.4813L24.50212,15.06485L21.98394,15.02189L22.46319,15.70258L23.95967,15.72927L23.80627,16.29539C23.77706,16.40767 23.75681,16.51612 23.74529,16.62089C23.73395,16.72598 23.73161,16.82615 23.73879,16.92178C23.746,17.01766 23.76128,17.10953 23.78467,17.19735C23.80811,17.28539 23.84042,17.37038 23.88163,17.45229C23.92278,17.53419 23.97136,17.61479 24.02738,17.69409C24.17804,17.90736 24.36482,18.09739 24.58778,18.26402C24.81186,18.43148 25.05128,18.56374 25.30517,18.66016C25.56006,18.75689 25.80659,18.80991 26.04419,18.81858C26.26771,18.82336 26.44536,18.78314 26.57662,18.69808C26.7076,18.61319 26.78551,18.49274 26.8104,18.33729C26.83541,18.18251 26.80723,18.00017 26.72661,17.79114L25.83762,17.4381C25.87843,17.56968 25.89547,17.6818 25.88839,17.77424Z"/>
      <path class="cls-3" d="M3.78267,2.21089C3.82996,2.14058 3.86946,2.07313 3.90097,2.00839C3.93242,1.94379 3.95582,1.88262 3.97093,1.82461C3.98607,1.76684 3.99414,1.71172 3.99516,1.65923C3.99624,1.60697 3.99005,1.55684 3.97659,1.50884C3.96315,1.46092 3.94405,1.41416 3.9193,1.36855C3.85311,1.2466 3.75607,1.1394 3.62858,1.04702C3.50141,0.95498 3.35681,0.88357 3.19463,0.83271C3.03265,0.78198 2.86755,0.75561 2.69889,0.75342C2.53965,0.75334 2.40259,0.77753 2.28768,0.82606S2.08645,0.94273 2.02935,1.03029C1.97197,1.11824 1.94578,1.2218 1.95097,1.34127L2.51783,1.53796C2.52,1.4611 2.53492,1.39581 2.56271,1.34203C2.5905,1.28846 2.62884,1.24772 2.67818,1.21999C2.72732,1.19228 2.78797,1.17847 2.86004,1.17855C2.93755,1.17863 3.00804,1.18902 3.07166,1.20961C3.13517,1.23023 3.19057,1.2587 3.23742,1.29482C3.2844,1.33111 3.32057,1.37293 3.34593,1.42067C3.36802,1.46226 3.37719,1.50858 3.37365,1.55953C3.37001,1.6107 3.35654,1.66292 3.33296,1.7163C3.30933,1.76979 3.28353,1.82179 3.25539,1.87231C3.22721,1.92291 3.19922,1.96726 3.17127,2.00532L2.67146,2.74155L2.94939,3.01129L4.93925,3.01768L4.69777,2.57461L3.53538,2.57149L3.78267,2.21089Z"/>
    </g>
  </g>
</svg>