<?xml version="1.0" encoding="UTF-8"?>
<svg xmlns="http://www.w3.org/2000/svg" viewBox="0 0 52.63 49.99">
  <defs>
    <style>
      .card-frame-outer{fill:#231f20;stroke:none;}.card-frame-inner{fill:#fff;stroke:none;}
      .cls-1 {
        stroke: gray;
      }

      .cls-1, .cls-2 {
        fill: #fff;
        stroke-miterlimit: 10;
        stroke-width: 0.58914px;
      }

      .cls-2 {
        stroke: #f4c430;
      }

      .cls-3 {
        fill: #f4c430;
      }
    </style>
  </defs>
  <path class="card-frame-outer" d="M14.33-.07L50.92-.03c1.11,0,1.87.75,1.69,1.67l-9.16,46.29c-.21,1.05-1.34,1.9-2.53,1.9l-39.17.09c-1.2,0-1.95-.85-1.69-1.9L11.88,1.6c.24-.92,1.34-1.67,2.45-1.67ZM1.26,48.02c-.12.46.22.84.74.84l39.11-.08c.52,0,1.03-.38,1.12-.84L51.47,1.64c.08-.41-.25-.74-.74-.74l-36.63-.04c-.49,0-.98.33-1.08.74L1.26,48.02Z"/>
  <path class="card-frame-inner" d="M14.1.86l36.63.04c.49,0,.83.33.74.74l-9.23,46.29c-.09.46-.59.84-1.12.84l-39.11.08c-.53,0-.86-.38-.74-.84L13.01,1.6c.1-.41.59-.74,1.08-.74Z"/>
  
  <g id="default">
    
    <g>
      <g>
        <path d="M39.04797,44.18866C38.85533,44.38019 38.65962,44.52732 38.46012,44.62914C38.26052,44.73102 38.05872,44.78414 37.85388,44.78849C37.63355,44.79316 37.45509,44.76062 37.3194,44.69126C37.18371,44.6219 37.08877,44.52415 37.03395,44.39888C36.97961,44.27365 36.96818,44.12756 37.0001,43.96065C37.02784,43.81557 37.10171,43.6538 37.22226,43.47454C37.34272,43.29542 37.49273,43.11249 37.67323,42.92535C37.85358,42.73837 38.03638,42.55687 38.22208,42.38083C38.40764,42.20493 38.57903,42.05095 38.73675,41.91884L41.61738,39.4149L41.39443,38.54771L36.00018,38.64525L35.71853,40.09037L38.90584,40.03041L37.47043,41.25648C37.19008,41.49807 36.9365,41.73029 36.71014,41.95353C36.48356,42.17699 36.28611,42.38888 36.11814,42.59001C35.95004,42.79131 35.80716,42.98312 35.68955,43.16542C35.57186,43.34786 35.47909,43.52285 35.41126,43.69035C35.3434,43.85797 35.29396,44.02155 35.26296,44.18109C35.17965,44.60993 35.21688,44.98581 35.37431,45.3089C35.5319,45.6323 35.78715,45.88131 36.1392,46.05531C36.49133,46.22937 36.90807,46.31511 37.38842,46.31168C37.84623,46.30162 38.29299,46.20452 38.72809,46.02055C39.16273,45.83677 39.55487,45.58505 39.90395,45.26602C40.25298,44.94743 40.54416,44.5759 40.77876,44.15244L39.58804,43.49613C39.4204,43.766 39.24052,43.99687 39.04797,44.18866Z"/>
        <path d="M18.37535,6.72378C18.65126,6.5125 18.90072,6.30959 19.12344,6.11463C19.34595,5.91986 19.53997,5.73521 19.70531,5.55994C19.87051,5.3848 20.01123,5.21789 20.12751,5.05918C20.2437,4.90059 20.33594,4.74834 20.40425,4.60242C20.47252,4.45659 20.52318,4.31414 20.55625,4.17507C20.64497,3.80202 20.61859,3.47393 20.47784,3.19022C20.33721,2.90676 20.10313,2.68632 19.77635,2.52911C19.44922,2.37194 19.05972,2.2902 18.60732,2.2835C18.17548,2.28334 17.75082,2.35867 17.33362,2.5096C16.91602,2.66068 16.53536,2.87194 16.19215,3.14319C15.84804,3.4148 15.556,3.73459 15.31496,4.10199L16.42625,4.70079C16.59627,4.46595 16.77617,4.26608 16.96641,4.10111C17.15597,3.93663 17.3475,3.81132 17.54041,3.72586C17.73323,3.64045 17.92634,3.59773 18.12067,3.59767C18.3296,3.59761 18.49722,3.62928 18.6241,3.69231C18.75055,3.75534 18.83804,3.84247 18.8859,3.95299C18.93368,4.06391 18.94037,4.1917 18.90525,4.33747C18.87469,4.46431 18.79979,4.60515 18.67989,4.76075C18.55991,4.91645 18.4115,5.07523 18.23367,5.23745C18.05571,5.39979 17.8753,5.55749 17.69202,5.71053C17.50861,5.86369 17.33925,5.99781 17.18353,6.11285L14.30276,8.32068L14.48074,9.11338L19.71307,9.0974L20.02187,7.79546L16.95374,7.80282L18.37535,6.72378Z"/>
      </g>
      <path d="M17.45625,12.78004C18.48199,10.60026 14.71593,10.61685 14.68796,12.79361C13.89449,12.80203 13.10824,13.38902 12.92953,14.11019C12.56074,15.49674 14.62867,15.90677 15.54671,14.6557C15.17636,15.38858 14.64554,15.97155 14.08869,16.27548L16.37128,16.26031C15.96517,15.96794 15.71256,15.38487 15.69552,14.65711C16.01152,15.89821 18.27354,15.45949 18.57585,14.0788C18.74643,13.35934 18.24575,12.77994 17.45625,12.78004Z"/>
      <path d="M41.00374,34.60123C41.0795,36.94249 37.22286,37.00662 38.19335,34.64639C37.38985,34.65446 36.86003,34.04154 37.0094,33.27537C37.26891,31.81471 39.53386,31.33952 39.9023,32.63983C39.85471,31.87304 39.57961,31.27116 39.15547,30.96436L41.44026,30.9319C40.9043,31.24696 40.39316,31.86554 40.05323,32.63516C40.92026,31.31916 43.0048,31.73243 42.71111,33.18777C42.57009,33.952 41.80687,34.5843 41.00374,34.60123Z"/>
    </g>
    <g>
      <path d="M32.507,9.38157C33.74236,6.59431 28.92808,6.60593 28.96385,9.39297C27.94781,9.40217 26.95952,10.15289 26.75335,11.07812C26.32442,12.85893 28.99062,13.38986 30.12597,11.78354C29.67534,12.72426 29.0141,13.47314 28.30984,13.86317L31.237,13.84714C30.70663,13.47058 30.36305,12.72089 30.31669,11.78568C30.76354,13.38057 33.64772,12.82071 33.98579,11.04872C34.17862,10.12617 33.51733,9.38312 32.507,9.38157Z"/>
      <path d="M26.32151,38.48655C26.34341,41.61329 21.18547,41.7105 22.56856,38.55377C21.49507,38.56641 20.81,37.75036 21.0377,36.72849C21.43773,34.78311 24.47408,34.14671 24.9198,35.8758C24.88243,34.85582 24.53709,34.05583 23.98287,33.64892L27.0266,33.60189C26.30271,34.0213 25.60086,34.84428 25.1212,35.8692C26.32116,34.1177 29.08363,34.66279 28.6452,36.59932C28.43231,37.61784 27.39373,38.462 26.32151,38.48655Z"/>
    </g>
  </g>
</svg>