<?xml version="1.0" encoding="UTF-8"?>
<svg xmlns="http://www.w3.org/2000/svg" viewBox="0 0 41.74 37.93">
  <defs>
    <style>
      .card-frame-outer{fill:#231f20;stroke:none;}.card-frame-inner{fill:#fff;stroke:none;}
      .cls-1 {
        stroke: gray;
      }

      .cls-1, .cls-2 {
        fill: #fff;
        stroke-miterlimit: 10;
        stroke-width: 0.45701px;
      }

      .cls-2 {
        stroke: #f4c430;
      }

      .cls-3 {
        fill: #f4c430;
      }
    </style>
  </defs>
  <path class="card-frame-outer" d="M29.49.06L1.28,0C.42,0-.14.57.03,1.27l8.51,35.14c.19.79,1.09,1.43,2,1.43l29.91.08c.91,0,1.47-.64,1.24-1.43L31.42,1.34c-.21-.71-1.07-1.28-1.93-1.28ZM40.76,36.5c.1.35-.14.63-.55.63l-29.87-.08c-.4,0-.8-.29-.88-.63L.9,1.28c-.08-.31.17-.56.55-.56l28.24.06c.38,0,.76.25.85.57l10.22,35.16Z"/>
  <path class="card-frame-inner" d="M29.69.77l-28.24-.06c-.38,0-.63.25-.55.56l8.56,35.14c.08.35.48.63.88.63l29.87.08c.4,0,.65-.28.55-.63L30.55,1.34c-.09-.31-.47-.57-.85-.57Z"/>
  
  <g id="default">
    
    <g>
      <path d="M36.28797,34.11935C36.20466,34.2607 36.10269,34.36765 35.9812,34.43951C35.85968,34.51139 35.71866,34.54559 35.55745,34.5421C35.38413,34.53834 35.23053,34.50732 35.09749,34.44938C34.96449,34.39147 34.85348,34.31306 34.76428,34.2148C34.67548,34.11661 34.6131,34.00378 34.5775,33.87634C34.54656,33.76556 34.54609,33.64344 34.57627,33.50934C34.60643,33.3753 34.65865,33.23927 34.73355,33.10092C34.80841,32.96264 34.88724,32.82862 34.9704,32.69885C35.05352,32.56914 35.13343,32.45584 35.21049,32.35893L36.58866,30.51353L36.09288,29.83668L31.84774,29.75631L32.15205,30.85908L34.65451,30.90805L33.96335,31.80927C33.82936,31.98664 33.71322,32.15754 33.61541,32.32229C33.51755,32.48714 33.43856,32.64394 33.379,32.79333C33.31941,32.9428 33.27633,33.08574 33.24978,33.22214C33.22322,33.35861 33.21364,33.49012 33.22106,33.61668C33.22849,33.7433 33.24901,33.86741 33.28263,33.989C33.373,34.31581 33.53936,34.6059 33.78157,34.85949C34.0241,35.11341 34.3169,35.31352 34.6592,35.45937C35.00183,35.60536 35.36373,35.68569 35.74391,35.69961C36.10408,35.70766 36.42398,35.64824 36.7031,35.52138C36.98216,35.39454 37.20269,35.21372 37.36439,34.97933C37.52632,34.74513 37.62276,34.46795 37.65503,34.14862L36.4648,33.60276C36.42998,33.80553 36.37115,33.97776 36.28797,34.11935Z"/>
      <path d="M6.74061,5.14022C6.87259,4.98202 6.98771,4.82993 7.0856,4.68366C7.18344,4.53747 7.26349,4.39876 7.3253,4.26696C7.38707,4.13522 7.43336,4.00957 7.46417,3.89C7.49497,3.77049 7.50998,3.65567 7.5092,3.54553C7.50843,3.43544 7.49559,3.32785 7.4707,3.22274C7.40391,2.94077 7.26642,2.69248 7.05862,2.47749C6.85106,2.26275 6.59576,2.09554 6.29343,1.97603C5.99105,1.85661 5.66892,1.79387 5.32676,1.78827C5.0026,1.78738 4.71106,1.84346 4.45235,1.95653C4.19359,2.06961 3.98416,2.22805 3.82427,2.43165C3.66395,2.63539 3.55981,2.87542 3.51078,3.15133L4.55532,3.60598C4.59878,3.42958 4.66214,3.27951 4.74572,3.15572C4.829,3.03227 4.92778,2.93833 5.04188,2.87441C5.15596,2.81051 5.28556,2.7788 5.43138,2.77929C5.58822,2.77981 5.72543,2.80418 5.84329,2.85212C5.96086,2.90008 6.0578,2.96614 6.13331,3.04975C6.20886,3.13341 6.25968,3.23023 6.28543,3.34023C6.30784,3.43594 6.30191,3.54206 6.26743,3.65916C6.23293,3.77631 6.17818,3.89565 6.10256,4.01744C6.02691,4.13928 5.9478,4.25757 5.86489,4.37229C5.78195,4.48706 5.70277,4.58749 5.62704,4.67356L4.25836,6.32129L4.67377,6.91875L8.59808,6.94143L8.36478,5.95884L6.05829,5.94684L6.74061,5.14022Z"/>
      <path d="M6.89667,8.43697C6.95551,9.39008 5.07806,10.095 5.45361,11.19833C5.80114,12.22093 7.28379,12.37934 7.53221,11.64597C7.51701,12.11137 7.38978,12.48204 7.03998,12.66265L8.72671,12.67809C8.29459,12.49337 7.98792,12.1138 7.75621,11.64789C8.34815,12.3889 9.76699,12.25621 9.63918,11.23306C9.50106,10.12854 7.28279,9.39244 6.89733,8.43698Z"/>
      <path d="M33.59806,28.06912C33.12903,27.01708 30.7312,26.19439 30.53437,25.00439C30.35314,23.91217 31.83665,23.7809 32.49964,24.57518C32.22928,24.0742 31.89304,23.67375 31.42555,23.47167L33.19933,23.49879C32.84368,23.68504 32.72678,24.08381 32.73638,24.57895C32.95752,23.79823 34.53247,23.97719 34.9674,25.07616C35.44139,26.27419 33.4788,27.02314 33.59876,28.06913Z"/>
    </g>
    <g>
      <path d="M16.58452,5.14986C16.68583,6.36825 14.27428,7.27381 14.7882,8.68634C15.26505,9.99706 17.19134,10.19792 17.49368,9.25655C17.48652,9.85355 17.33178,10.33006 16.88246,10.562L19.07147,10.57922C18.50557,10.34256 18.09702,9.85582 17.78398,9.25861C18.57218,10.20849 20.4098,10.03588 20.21428,8.72313C20.00354,7.30792 17.10951,6.37054 16.58485,5.14986Z"/>
      <path d="M23.37788,31.62625C22.80404,30.25844 19.75445,29.18642 19.53617,27.64421C19.33612,26.23104 21.2372,26.0638 22.06382,27.09221C21.73146,26.44374 21.31224,25.92487 20.71968,25.66351L22.98835,25.70132C22.52829,25.94164 22.36764,26.45707 22.36663,27.0975C22.67086,26.08802 24.6826,26.32199 25.21153,27.74542C25.78902,29.29946 23.25235,30.26711 23.37823,31.62626Z"/>
    </g>
  </g>
</svg>