<?xml version="1.0" encoding="UTF-8"?>
<svg xmlns="http://www.w3.org/2000/svg" viewBox="0 0 33.48 37.98">
  <defs>
    <style>
      .card-frame-outer{fill:#231f20;stroke:none;}.card-frame-inner{fill:#fff;stroke:none;}
      .cls-1 {
        stroke: gray;
      }

      .cls-1, .cls-2 {
        fill: #fff;
        stroke-miterlimit: 10;
        stroke-width: 0.40957px;
      }

      .cls-2 {
        stroke: #f4c430;
      }

      .cls-3 {
        fill: red;
      }

      .cls-4 {
        fill: #f4c430;
      }
    </style>
  </defs>
  <path class="card-frame-outer" d="M28.18,0H1.47C.66.01,0,.55,0,1.22l.07,35.24c0,.84.75,1.53,1.67,1.53h30.22c.92,0,1.6-.69,1.51-1.53L29.78,1.2C29.71.54,28.99,0,28.18,0ZM32.54,36.45c.04.37-.26.67-.67.67H1.74c-.41,0-.74-.3-.74-.67L.83,1.22c0-.29.29-.53.65-.53h26.77c.36-.01.68.22.71.52l3.59,35.25Z"/>
  <path class="card-frame-inner" d="M28.24.67H1.48c-.36.01-.65.25-.65.55l.17,35.24c0,.37.33.67.74.67h30.14c.41,0,.71-.3.67-.67L28.95,1.2c-.03-.29-.35-.53-.71-.53Z"/>
  
  <g id="default">
    
    <g>
      <path class="cls-3" d="M12.75489,16.90551C12.874,15.35164 15.31603,15.35954 15.44507,16.8979C15.44262,15.36065 17.89339,15.39599 18.14688,16.9582C18.38802,18.44298 15.76533,19.39413 15.60788,20.7061C15.33809,19.38932 12.64153,18.38171 12.75489,16.90551Z"/>
      <path class="cls-3" d="M8.23573,13.60599C8.37995,12.09583 10.77791,12.09906 10.8774,13.59368C10.9022,12.09992 13.30814,12.12981 13.52916,13.64732C13.73937,15.08935 11.14764,16.01811 10.96984,17.29264C10.72829,16.01423 8.09854,15.04042 8.23573,13.60599Z"/>
      <path class="cls-3" d="M17.09502,13.67775C17.18689,12.15911 19.60998,12.16246 19.76389,13.66548C19.7356,12.16332 22.16774,12.19347 22.44536,13.71954C22.70938,15.16979 20.12359,16.10375 19.98945,17.38566C19.69968,16.09983 17.00755,15.12032 17.09502,13.67775Z"/>
      <path class="cls-3" d="M8.13035,6.50126C8.2711,5.07507 10.60085,5.0687 10.69645,6.4792C10.7216,5.06902 13.05889,5.0878 13.27208,6.51936C13.47478,7.87923 10.95718,8.76571 10.78361,9.96851C10.54995,8.76372 7.99651,7.85547 8.13035,6.50126Z"/>
      <path class="cls-3" d="M16.73523,6.53426C16.82658,5.1005 19.18005,5.09414 19.327,6.51214C19.30206,5.09446 21.66407,5.11337 21.93065,6.55255C22.18409,7.91977 19.67208,8.81099 19.53966,10.02037C19.26056,8.80899 16.64829,7.89574 16.73523,6.53426Z"/>
      <path class="cls-3" d="M8.34331,21.15118C8.53982,22.77769 11.04228,22.82555 11.06698,21.21982C11.17197,22.82728 13.68167,22.84629 13.79787,21.21861C13.90586,19.70871 11.21588,18.69892 10.97168,17.40596C10.79204,18.69431 8.16088,19.64291 8.34331,21.15118Z"/>
      <path class="cls-3" d="M17.47258,21.26098C17.72922,22.89719 20.26001,22.94551 20.22759,21.33019C20.39115,22.94726 22.92827,22.96655 22.98745,21.32914C23.04254,19.81032 20.28799,18.79446 19.99502,17.49399C19.85951,18.78981 17.23442,19.74381 17.47258,21.26098Z"/>
      <path class="cls-3" d="M8.45538,29.1558C8.6588,30.88644 11.2401,30.9489 11.26431,29.24128C11.37389,30.95134 13.96289,30.98315 14.08092,29.25251C14.19058,27.64772 11.41585,26.56224 11.16307,25.18737C10.97885,26.55543 8.26661,27.5516 8.45538,29.1558Z"/>
      <path class="cls-3" d="M17.87113,29.31443C18.13852,31.05599 20.74997,31.11909 20.7134,29.40068C20.8853,31.12156 23.50349,31.15381 23.56083,29.41223C23.6142,27.7974 20.77079,26.70498 20.46616,25.32164C20.32886,26.69808 17.62309,27.7002 17.87113,29.31443Z"/>
    </g>
    <g>
      <path class="cls-3" d="M2.87343,8.98228C3.01266,7.81236 4.8987,7.81016 4.94882,8.96715C4.99611,7.81059 6.88672,7.82911 7.0295,9.0032C7.16499,10.11596 5.11529,10.8378 4.95232,11.81866C4.78697,10.83578 2.74168,10.09073 2.87343,8.98228Z"/>
      <path class="cls-3" d="M24.60221,26.58884C24.85196,27.96601 26.94711,28.01245 26.88594,26.65393C27.05529,28.01422 29.15387,28.03618 29.17086,26.65961C29.18682,25.3801 26.88206,24.51511 26.61131,23.41471C26.52677,24.51006 24.37032,25.30916 24.60221,26.58884Z"/>
      <path class="cls-3" d="M28.71322,31.72554C28.40242,31.54125 28.07241,31.44635 27.72284,31.43993C27.53892,31.43656 27.35453,31.46464 27.17,31.52453C27.0803,31.5537 26.99283,31.58855 26.90761,31.62942L27.83943,29.51778L27.79548,29.43213L26.50918,29.41006L25.83454,30.88148C25.71063,31.16531 25.60146,31.42515 25.50683,31.66186C25.41202,31.89864 25.33589,32.1192 25.27811,32.3228C25.22025,32.52669 25.18019,32.7242 25.15796,32.91498C25.13569,33.10602 25.13164,33.29466 25.14585,33.48124C25.16762,33.76715 25.24832,34.03764 25.38806,34.29197C25.52809,34.5468 25.71411,34.77527 25.94656,34.97724C26.17942,35.17957 26.44313,35.33823 26.7377,35.45375C27.0326,35.56941 27.34227,35.6305 27.66586,35.63725C28.12038,35.64673 28.52002,35.55598 28.86358,35.36479C29.20679,35.17379 29.46689,34.90918 29.64384,34.57138C29.82039,34.23435 29.88854,33.85477 29.84907,33.43339C29.81628,33.08324 29.69644,32.75678 29.48958,32.45454C29.28319,32.1527 29.02451,31.90981 28.71322,31.72554ZM28.49063,34.04653C28.41433,34.1971 28.30403,34.31533 28.15969,34.40045C28.01527,34.48561 27.84696,34.52627 27.65483,34.52239C27.44414,34.51813 27.25437,34.46891 27.08557,34.37445C26.91691,34.28006 26.78146,34.15432 26.6792,33.99732C26.57704,33.84017 26.51777,33.66253 26.50166,33.46412C26.48697,33.28315 26.51983,33.11977 26.60014,32.97323S26.79674,32.7117 26.94964,32.62774C27.10247,32.54381 27.28339,32.50385 27.49248,32.50782C27.67713,32.51133 27.84864,32.55934 28.00748,32.65226C28.16645,32.74526 28.29726,32.86792 28.39996,33.02102C28.50276,33.17396 28.5622,33.33834 28.57777,33.51352C28.59598,33.71829 28.56682,33.89577 28.49063,34.04653Z"/>
      <path class="cls-3" d="M6.33417,2.15014C6.14662,1.99924 5.93038,1.88202 5.68541,1.7986C5.44069,1.71528 5.18007,1.67369 4.90405,1.67352C4.51637,1.67329 4.1688,1.74838 3.8607,1.89838C3.55233,2.04877 3.30832,2.25443 3.12862,2.51564C2.94856,2.77737 2.85733,3.07165 2.85487,3.3985C2.85282,3.67156 2.92834,3.9259 3.08198,4.16171C3.23595,4.39802 3.44125,4.58779 3.69825,4.73079C3.95563,4.87428 4.23772,4.94623 4.54433,4.94702C4.70575,4.94744 4.86997,4.9226 5.03663,4.87224C5.11762,4.84773 5.19704,4.81869 5.27489,4.78487L4.29188,6.51199L4.32427,6.58216L5.47039,6.58626L6.17069,5.37416C6.29872,5.14313 6.41174,4.93216 6.51012,4.74116C6.60835,4.55044 6.68886,4.37348 6.75201,4.21074C6.81507,4.04822 6.862,3.89142 6.89281,3.74058C6.92359,3.58993 6.93826,3.4418 6.93687,3.29593C6.93473,3.07312 6.88059,2.86428 6.77456,2.66907C6.66871,2.47447 6.522,2.30152 6.33417,2.15014ZM4.8262,4.09354C4.66533,4.0932 4.51936,4.05753 4.38802,3.98628C4.25679,3.91534 4.15256,3.82028 4.07535,3.70141C3.99821,3.58266 3.95972,3.45519 3.96011,3.31874C3.96057,3.15992 3.99943,3.0215 4.07726,2.90368C4.15471,2.78596 4.25879,2.69343 4.38951,2.62576C4.52017,2.55812 4.66799,2.5244 4.83304,2.52458C5.0141,2.52479 5.17406,2.56017 5.31297,2.63024C5.45198,2.70063 5.5604,2.79586 5.63821,2.91599C5.7161,3.03625 5.75559,3.17389 5.75631,3.32844C5.75696,3.46952 5.71738,3.59833 5.6375,3.71454C5.55755,3.83087 5.44775,3.92322 5.30871,3.99155C5.16932,4.05991 5.00846,4.09392 4.8262,4.09354Z"/>
    </g>
  </g>
</svg>